<svg xmlns="http://www.w3.org/2000/svg" viewBox="0 0 260.43 45.76"><defs><style>.cls-1{fill:#231f20;}</style></defs><title>FruitsFamily™</title><path class="cls-1" d="M283.31,136.26h5v1.18H286.5v4.88h-1.39v-4.88h-1.8Z" transform="translate(-34.79 -133.47)"/><path class="cls-1" d="M289,136.26h1.86l.76,2.53c0,.18.11.4.16.65s.1.47.15.7.1.53.14.8h0c0-.27.09-.54.14-.8s.09-.46.14-.7a5.47,5.47,0,0,1,.17-.65l.74-2.53h1.88v6.06h-1.27v-2.71c0-.19,0-.41,0-.66s0-.49,0-.72,0-.53,0-.8h0c0,.25-.1.49-.16.74s-.09.42-.15.65-.11.44-.16.62l-.87,2.88h-1.14l-.87-2.88c-.05-.18-.11-.39-.16-.62s-.11-.45-.15-.65-.11-.49-.16-.74h0c0,.27,0,.54,0,.8s0,.47,0,.72,0,.47,0,.66v2.71H289Z" transform="translate(-34.79 -133.47)"/><path class="cls-1" d="M34.79,144.56h3.9v-2.2q0-4.1,2.2-6.1a7.53,7.53,0,0,1,3.25-1.61,17.52,17.52,0,0,1,4.46-.44c.52,0,1,0,1.56,0s1.06.08,1.62.15v5.47q-1.47-.06-2.49,0a4.37,4.37,0,0,0-1.69.36,1.91,1.91,0,0,0-1,.95,4.11,4.11,0,0,0-.29,1.71v1.66h5.42v5H46.36v21H38.69v-21h-3.9Z" transform="translate(-34.79 -133.47)"/><path class="cls-1" d="M61.05,149.2h.15a9.22,9.22,0,0,1,3-3.91,7.42,7.42,0,0,1,4.2-1.17,4.56,4.56,0,0,1,1.62.2V151h-.2a9,9,0,0,0-1.61-.15,6.52,6.52,0,0,0-5,1.88,7.94,7.94,0,0,0-1.88,5.74v12.05H53.68v-26h7.37Z" transform="translate(-34.79 -133.47)"/><path class="cls-1" d="M88.63,170.53v-3.71h-.14a9.63,9.63,0,0,1-3.27,3.37,8.9,8.9,0,0,1-4.54,1.08q-4.46,0-6.79-2.61a10,10,0,0,1-2.34-6.91V144.56h7.66v15.72a4.88,4.88,0,0,0,1.05,3.37,4,4,0,0,0,3.1,1.17A4.54,4.54,0,0,0,87,163.26a6,6,0,0,0,1.32-4v-14.7h7.57v26Z" transform="translate(-34.79 -133.47)"/><rect class="cls-1" x="64.25" y="11.09" width="7.66" height="25.97"/><path class="cls-1" d="M108.31,144.56h3.9v-8.3h7.52v8.3h5.08v4.88h-5.08v12.89a2.22,2.22,0,0,0,.76,2,3.75,3.75,0,0,0,2.12.51c.26,0,.55,0,.88,0s.62,0,.88-.08h.39v5.72l-1.76.24a20.59,20.59,0,0,1-2.68.15,15.92,15.92,0,0,1-3.3-.32,6.49,6.49,0,0,1-2.56-1.12,5.31,5.31,0,0,1-1.66-2.1,8,8,0,0,1-.59-3.3V149.44h-3.9Z" transform="translate(-34.79 -133.47)"/><path class="cls-1" d="M138.14,171.36a18.83,18.83,0,0,1-5.08-.63,11.63,11.63,0,0,1-3.83-1.81,8.53,8.53,0,0,1-3.54-6.39h7.22a4.29,4.29,0,0,0,1.69,2.83,6,6,0,0,0,3.59,1,5.44,5.44,0,0,0,3.17-.79,2.51,2.51,0,0,0,1.12-2.19,1.91,1.91,0,0,0-.54-1.42,3.89,3.89,0,0,0-1.46-.88,14.41,14.41,0,0,0-2.12-.56l-2.57-.46c-1.17-.23-2.31-.49-3.41-.78a10.2,10.2,0,0,1-3-1.32,6.72,6.72,0,0,1-2.13-2.3,7.53,7.53,0,0,1-.8-3.71,7,7,0,0,1,.85-3.51,7.71,7.71,0,0,1,2.32-2.54,10.59,10.59,0,0,1,3.47-1.54,17.28,17.28,0,0,1,4.29-.51c3.62,0,6.35.71,8.21,2.12a8.43,8.43,0,0,1,3.32,5.55H141.8c-.49-1.86-2-2.79-4.4-2.79a5.11,5.11,0,0,0-2.8.68,2.21,2.21,0,0,0-1,2,1.55,1.55,0,0,0,.49,1.19,3.51,3.51,0,0,0,1.36.76,13.17,13.17,0,0,0,2,.49l2.49.44c1.18.19,2.35.45,3.52.76a10.43,10.43,0,0,1,3.17,1.39,7.3,7.3,0,0,1,2.32,2.46,7.82,7.82,0,0,1,.9,4,7.47,7.47,0,0,1-3.32,6.4,11.52,11.52,0,0,1-3.71,1.61A19.66,19.66,0,0,1,138.14,171.36Z" transform="translate(-34.79 -133.47)"/><path class="cls-1" d="M150.15,144.56h3.9v-2.2q0-4.1,2.2-6.1a7.55,7.55,0,0,1,3.24-1.61,17.65,17.65,0,0,1,4.47-.44c.52,0,1,0,1.56,0s1.06.08,1.61.15v5.47c-1,0-1.8,0-2.48,0a4.37,4.37,0,0,0-1.69.36,1.91,1.91,0,0,0-1,.95,4.1,4.1,0,0,0-.3,1.71v1.66h5.42v5h-5.42v21h-7.66v-21h-3.9Z" transform="translate(-34.79 -133.47)"/><path class="cls-1" d="M185.2,170.53a4.43,4.43,0,0,1-.54-1.24,9.46,9.46,0,0,1-.34-1.93h-.1a9.42,9.42,0,0,1-3.05,2.83,9.57,9.57,0,0,1-4.81,1,11.83,11.83,0,0,1-3.54-.51,8.58,8.58,0,0,1-2.83-1.49,6.44,6.44,0,0,1-1.85-2.47,8.11,8.11,0,0,1-.66-3.39,7.14,7.14,0,0,1,.8-3.57,6.61,6.61,0,0,1,2.17-2.29,10.79,10.79,0,0,1,3.22-1.34,30.58,30.58,0,0,1,4-.71,20.79,20.79,0,0,0,5-1.17,2.25,2.25,0,0,0,1.54-2.15,2.94,2.94,0,0,0-.93-2.27,4.22,4.22,0,0,0-2.93-.86,5,5,0,0,0-3.29.93,3.58,3.58,0,0,0-1.25,2.49h-7.07a8.13,8.13,0,0,1,2.92-6,10.62,10.62,0,0,1,3.57-1.9,16.15,16.15,0,0,1,5-.71,21.35,21.35,0,0,1,4.29.37,9.86,9.86,0,0,1,3.18,1.19,7.22,7.22,0,0,1,3,3.15,10.6,10.6,0,0,1,.95,4.61v13.33c0,2,.32,3.19,1,3.62v.43Zm-6.45-4.34a5.84,5.84,0,0,0,4.13-1.42,4.65,4.65,0,0,0,1.54-3.56v-3.37a7.3,7.3,0,0,1-2,.86c-.8.21-1.62.41-2.47.61a11.51,11.51,0,0,0-3.75,1.31,2.74,2.74,0,0,0-1.23,2.49,2.59,2.59,0,0,0,1.13,2.4A5.11,5.11,0,0,0,178.75,166.19Z" transform="translate(-34.79 -133.47)"/><path class="cls-1" d="M194.91,144.56h7.37v4.05h.15a9.58,9.58,0,0,1,3.15-3.56,8.42,8.42,0,0,1,4.66-1.22,7.17,7.17,0,0,1,7.13,4.93h.1a10.21,10.21,0,0,1,3.68-3.78,9.26,9.26,0,0,1,4.57-1.15c2.89,0,5.08.87,6.54,2.61a10.48,10.48,0,0,1,2.2,7v17.13h-7.62V154.67a5.07,5.07,0,0,0-1-3.35,3.53,3.53,0,0,0-2.85-1.19,3.87,3.87,0,0,0-3.25,1.56,6.46,6.46,0,0,0-1.2,4.05v14.79h-7.66V154.67a5.24,5.24,0,0,0-1-3.35,3.43,3.43,0,0,0-2.85-1.19,3.93,3.93,0,0,0-3.27,1.56,6.34,6.34,0,0,0-1.22,4.05v14.79h-7.67Z" transform="translate(-34.79 -133.47)"/><rect class="cls-1" x="202.6" y="11.09" width="7.66" height="25.97"/><path class="cls-1" d="M248.27,136.26H256v34.27h-7.71Z" transform="translate(-34.79 -133.47)"/><path class="cls-1" d="M276.2,144.56l-5.08,10.11c-.45.91-.9,1.88-1.34,2.93s-.84,2-1.2,2.88q-.58,1.61-1.17,3.12h-.1c0-1.08,0-2.14-.09-3.22s-.14-2-.22-3-.19-2.11-.32-3.06l-1.32-9.71h-7.61l3.85,20.75a27.69,27.69,0,0,1,.37,3.17,8.7,8.7,0,0,1-.07,2.06,3.83,3.83,0,0,1-1.39,2,4.61,4.61,0,0,1-2.76.73h-.49l-.83,0c-.3,0-.7,0-1.22,0h-1.52v5.9l2.59,0,1.63,0h.86a12.39,12.39,0,0,0,3.29-.41,8.25,8.25,0,0,0,2.77-1.37,12.21,12.21,0,0,0,2.41-2.49,32.73,32.73,0,0,0,2.37-3.78l14.3-26.61Z" transform="translate(-34.79 -133.47)"/><path class="cls-1" d="M237.49,133.91a7.57,7.57,0,0,0,1.11.39c.77.2,1.57.4,2.38.59a11.17,11.17,0,0,1,3.63,1.27,2.63,2.63,0,0,1,1.19,2.4v.15a3.27,3.27,0,0,1-3.28,3.27h-2.6a3.27,3.27,0,0,1-3.28-3.27v-5.24A5.23,5.23,0,0,0,237.49,133.91Z" transform="translate(-34.79 -133.47)"/><path class="cls-1" d="M99.13,133.91a7.71,7.71,0,0,0,1.12.39c.77.2,1.56.4,2.38.59a11.17,11.17,0,0,1,3.63,1.27,2.63,2.63,0,0,1,1.18,2.4v.15a3.27,3.27,0,0,1-3.28,3.27h-2.59a3.27,3.27,0,0,1-3.28-3.27v-5.24A5.12,5.12,0,0,0,99.13,133.91Z" transform="translate(-34.79 -133.47)"/></svg>
